HIERARCHY
ROOT Hips
{
 OFFSET 0.000000 0.000000 0.000000
 CHANNELS 6 Xposition Yposition Zposition Yrotation Xrotation Zrotation
 JOINT Chest
 {
  OFFSET 0.000000 10.383400 0.001500
  CHANNELS 3 Yrotation Xrotation Zrotation
  JOINT Chest2
  {
   OFFSET 0.000000 10.418200 -0.003100
   CHANNELS 3 Yrotation Xrotation Zrotation
   JOINT Chest3
   {
    OFFSET 0.000000 10.375100 0.000000
    CHANNELS 3 Yrotation Xrotation Zrotation
    JOINT Chest4
    {
     OFFSET 0.000000 10.364600 0.000000
     CHANNELS 3 Yrotation Xrotation Zrotation
     JOINT Neck
     {
      OFFSET 0.000000 15.642200 0.000000
      CHANNELS 3 Yrotation Xrotation Zrotation
      JOINT Head
      {
       OFFSET 0.000000 9.697300 -0.006500
       CHANNELS 3 Yrotation Xrotation Zrotation
       End Site
       {
        OFFSET 0.000000 18.492200 -0.003400
       }
      }
     }
     JOINT RightCollar
     {
      OFFSET -3.166800 10.349300 0.000000
      CHANNELS 3 Yrotation Xrotation Zrotation
      JOINT RightShoulder
      {
       OFFSET -14.729700 0.000000 0.000000
       CHANNELS 3 Yrotation Xrotation Zrotation
       JOINT RightElbow
       {
        OFFSET 0.000000 -32.224300 0.000000
        CHANNELS 3 Yrotation Xrotation Zrotation
        JOINT RightWrist
        {
         OFFSET 0.000000 -26.084100 0.000000
         CHANNELS 3 Yrotation Xrotation Zrotation
         End Site
         {
          OFFSET 0.000000 -19.319400 0.000000
         }
        }
       }
      }
     }
     JOINT LeftCollar
     {
      OFFSET 3.166800 10.349300 0.000000
      CHANNELS 3 Yrotation Xrotation Zrotation
      JOINT LeftShoulder
      {
       OFFSET 14.729700 0.000000 0.000000
       CHANNELS 3 Yrotation Xrotation Zrotation
       JOINT LeftElbow
       {
        OFFSET 0.000000 -32.224300 0.000000
        CHANNELS 3 Yrotation Xrotation Zrotation
        JOINT LeftWrist
        {
         OFFSET 0.000000 -26.084100 0.000000
         CHANNELS 3 Yrotation Xrotation Zrotation
         End Site
         {
          OFFSET 0.000000 -19.319400 0.000000
         }
        }
       }
      }
     }
    }
   }
  }
 }
 JOINT RightHip
 {
  OFFSET -8.428900 -0.007500 -0.000800
  CHANNELS 3 Yrotation Xrotation Zrotation
  JOINT RightKnee
  {
   OFFSET 0.000000 -43.834600 0.000700
   CHANNELS 3 Yrotation Xrotation Zrotation
   JOINT RightAnkle
   {
    OFFSET 0.000000 -42.757000 0.001200
    CHANNELS 3 Yrotation Xrotation Zrotation
    JOINT RightToe
    {
     OFFSET 0.000000 -6.946900 15.649300
     CHANNELS 3 Yrotation Xrotation Zrotation
     End Site
     {
      OFFSET 0.000000 -1.580800 6.825800
     }
    }
   }
  }
 }
 JOINT LeftHip
 {
  OFFSET 8.428900 -0.007500 -0.000800
  CHANNELS 3 Yrotation Xrotation Zrotation
  JOINT LeftKnee
  {
   OFFSET 0.000000 -43.834600 0.000700
   CHANNELS 3 Yrotation Xrotation Zrotation
   JOINT LeftAnkle
   {
    OFFSET 0.000000 -42.757000 0.001200
    CHANNELS 3 Yrotation Xrotation Zrotation
    JOINT LeftToe
    {
     OFFSET 0.000000 -6.946900 15.649300
     CHANNELS 3 Yrotation Xrotation Zrotation
     End Site
     {
      OFFSET 0.000000 -1.580800 6.825800
     }
    }
   }
  }
 }
}
MOTION
Frames: 13
Frame Time: 0.008333
0.000000 93.354300 0.000000 0.000000 -5.767877 0.000000 0.000000 11.653817 0.000000 0.000000 -5.885947 0.000000 0.000000 -0.000000 0.000000 0.000000 -0.000000 0.000000 0.000000 12.528835 0.000000 0.000000 0.711642 0.000000 0.000000 -0.000000 0.000000 0.000000 0.000000 -90.000000 0.000000 -2.309062 0.000000 0.000000 2.309062 0.000000 0.000000 -0.000000 0.000000 0.000000 -0.000000 90.000000 0.000000 -2.309062 0.000000 0.000000 2.309062 0.000000 0.000000 8.520406 0.000000 0.000000 1.905762 0.000000 -0.000000 -4.658285 0.000000 0.000000 -0.000000 0.000000 0.000000 8.520406 0.000000 0.000000 1.905762 0.000000 -0.000000 -4.658285 0.000000 0.000000 -0.000000 0.000000
-0.873094 151.213743 -2.589524 173.808562 -17.432068 -3.046742 -0.361759 17.926863 1.060661 -0.068302 1.942327 0.109753 -0.080182 3.304059 0.213255 -0.357692 15.615486 0.911060 -1.435561 9.658716 -0.935086 -1.304378 -15.466010 -0.658861 5.613652 -1.645656 0.031906 19.987291 -21.485724 -14.830572 48.310283 -49.558139 -23.954675 13.926033 -6.864447 -32.344783 -8.221752 -0.471762 -1.597314 -0.759028 -24.086981 10.406267 -17.277485 -60.017536 -4.823281 -15.994298 8.386508 3.355665 4.785862 -51.956030 8.704127 -85.833048 82.798618 -84.413893 -1.327822 -18.375999 2.605340 -0.014391 -0.038571 0.009689 3.814614 -50.881418 -4.906211 95.444225 79.741227 101.466570 8.661873 -21.476127 -9.200368 -0.003738 -0.056076 0.008906
-1.739413 143.321542 -1.516044 173.797926 -17.457984 -3.049121 -0.369017 17.901248 1.039985 -0.059270 1.961915 0.115330 -0.081534 3.303908 0.214189 -0.356752 15.608243 0.897132 -1.431515 9.670330 -0.928366 -1.305744 -15.448191 -0.650333 5.629803 -1.643591 0.034792 20.053391 -21.515319 -14.839113 48.208673 -49.474567 -23.872196 13.895458 -6.896759 -32.360252 -8.211317 -0.467962 -1.597197 -0.763165 -24.090886 10.412040 -17.287192 -59.980662 -4.812982 -16.000096 8.396121 3.338868 4.805472 -51.935046 8.715190 -85.861248 82.787895 -84.437362 -1.337982 -18.360794 2.604611 -0.005972 -0.005638 -0.002651 3.813545 -50.868142 -4.890001 95.540318 79.755337 101.556995 8.685505 -21.453138 -9.203723 0.005762 0.005511 0.002558
-2.451941 136.822255 -0.630360 173.788736 -17.480453 -3.057366 -0.357978 17.915783 1.047428 -0.061888 1.953091 0.110587 -0.086213 3.286116 0.205691 -0.354378 15.599324 0.883641 -1.429998 9.682298 -0.921224 -1.300175 -15.433151 -0.640775 5.652233 -1.641023 0.038630 20.071351 -21.521369 -14.826235 48.203707 -49.373739 -23.848709 13.847660 -6.949346 -32.367243 -8.205096 -0.516410 -1.609488 -0.763896 -24.079535 10.418366 -17.320874 -59.902043 -4.797553 -15.990078 8.399483 3.355778 4.815775 -51.919368 8.739055 -85.860150 82.781667 -84.443446 -1.346431 -18.321669 2.610577 -0.003488 -0.002325 -0.001548 3.809079 -50.865666 -4.863953 95.653670 79.779222 101.671326 8.705613 -21.418861 -9.207357 0.006622 0.001930 0.002939
-2.966929 132.128931 0.009896 173.770564 -17.507050 -3.058796 -0.348752 17.910016 1.034771 -0.056007 1.967923 0.117875 -0.099989 3.226367 0.174767 -0.333236 15.629585 0.892100 -1.428440 9.704231 -0.908691 -1.301694 -15.427498 -0.635939 5.665892 -1.640505 0.046082 20.094486 -21.526904 -14.816303 48.183498 -49.299799 -23.818386 13.888104 -6.954066 -32.327250 -8.204178 -0.519220 -1.603915 -0.756856 -24.078722 10.416386 -17.341438 -59.857546 -4.778173 -15.988855 8.403253 3.341287 4.842811 -51.899497 8.753888 -85.861519 82.779355 -84.445137 -1.365861 -18.297772 2.619051 0.000926 -0.003600 0.000411 3.817957 -50.849318 -4.846373 95.739424 79.799643 101.752528 8.726943 -21.396130 -9.205300 0.004549 0.005397 0.002019
-3.292351 129.165248 0.416081 173.755969 -17.531115 -3.060000 -0.343289 17.900485 1.021151 -0.066053 1.928114 0.098345 -0.087684 3.258355 0.189329 -0.321404 15.646691 0.896189 -1.426376 9.719906 -0.899612 -1.314645 -15.439922 -0.642532 5.667681 -1.716296 0.009030 20.107546 -21.494837 -14.761142 48.176590 -49.206465 -23.797454 13.883274 -6.980168 -32.336557 -8.207353 -0.550747 -1.610612 -0.748818 -24.075577 10.412760 -17.350305 -59.805557 -4.780018 -15.993564 8.406781 3.334546 4.873326 -51.881962 8.762203 -85.890347 82.770803 -84.472238 -1.379641 -18.284797 2.631944 0.003372 -0.007906 0.001497 3.821616 -50.838158 -4.829985 95.803848 79.805033 101.813719 8.730266 -21.376872 -9.203743 0.003978 0.001893 0.001766
-3.471367 127.536027 0.641394 173.744833 -17.555864 -3.062262 -0.355782 17.853361 0.986705 -0.053718 1.960723 0.112980 -0.087114 3.254700 0.186485 -0.307663 15.665428 0.899168 -1.436374 9.708959 -0.906815 -1.320617 -15.425412 -0.632975 5.666580 -1.731909 0.007384 20.144776 -21.513873 -14.766872 48.144881 -49.122035 -23.756196 13.888926 -7.005988 -32.338900 -8.208216 -0.585919 -1.620105 -0.744894 -24.084776 10.408023 -17.367284 -59.740070 -4.778766 -15.996132 8.413486 3.318207 4.888785 -51.862522 8.773741 -85.868955 82.774623 -84.459025 -1.389151 -18.252618 2.643527 -0.000673 -0.006640 -0.000299 3.816599 -50.828821 -4.809232 95.874368 79.810190 101.877670 8.727064 -21.354622 -9.199750 0.002995 -0.003706 0.001330
-3.557075 126.761403 0.750257 173.731706 -17.586257 -3.061551 -0.355512 17.843145 0.967592 -0.053393 1.958513 0.111284 -0.079387 3.275155 0.195429 -0.336438 15.583335 0.843111 -1.438138 9.743092 -0.898639 -1.302618 -15.371293 -0.609308 5.696513 -1.690204 0.042843 20.174651 -21.527407 -14.759586 48.061572 -49.077185 -23.669509 13.899055 -7.014605 -32.335495 -8.181328 -0.540140 -1.603264 -0.743341 -24.081744 10.410940 -17.389434 -59.684310 -4.764336 -15.997213 8.415048 3.300189 4.909060 -51.839792 8.785292 -85.820261 82.791270 -84.434570 -1.407664 -18.196162 2.665959 -0.013892 0.000053 -0.006167 3.816234 -50.808244 -4.792279 95.909608 79.818036 101.905257 8.725924 -21.325286 -9.195414 0.001949 -0.001963 0.000865
-3.591435 126.446153 0.796330 173.716336 -17.624038 -3.065802 -0.351616 17.837237 0.951250 -0.052873 1.956190 0.109617 -0.071301 3.298011 0.206357 -0.344599 15.549338 0.817306 -1.441650 9.761407 -0.893034 -1.328513 -15.370398 -0.616854 5.710297 -1.712414 0.039376 20.194499 -21.533821 -14.738415 48.080525 -48.924961 -23.651589 13.835605 -7.083961 -32.331036 -8.179666 -0.549680 -1.603212 -0.738760 -24.080182 10.414038 -17.422018 -59.623141 -4.736113 -16.007557 8.422550 3.281550 4.974061 -51.820098 8.781348 -85.904331 82.778725 -84.497025 -1.424697 -18.149663 2.676249 -0.006905 -0.000388 -0.003065 3.816166 -50.777634 -4.771613 95.908425 79.819326 101.903670 8.718819 -21.275198 -9.190352 0.002401 0.010350 0.001066
-3.603565 126.337215 0.817677 173.710922 -17.645474 -3.072828 -0.359112 17.812463 0.933518 -0.044352 1.979077 0.119495 -0.077673 3.270838 0.192954 -0.343923 15.539509 0.802033 -1.446812 9.781081 -0.886434 -1.335116 -15.349708 -0.608539 5.724561 -1.720365 0.046072 20.214703 -21.553692 -14.727045 48.058717 -48.808372 -23.597362 13.783814 -7.133826 -32.328724 -8.179824 -0.558987 -1.600779 -0.737475 -24.078619 10.418544 -17.446567 -59.554871 -4.712510 -16.020002 8.416887 3.268508 4.976424 -51.804124 8.795263 -85.914230 82.779503 -84.506729 -1.420805 -18.115662 2.677265 -0.007260 0.004307 -0.003223 3.793678 -50.767683 -4.744999 95.956830 79.830618 101.944278 8.732207 -21.252957 -9.192221 0.003971 0.009267 0.001763
-3.608049 126.306318 0.829423 173.705134 -17.664456 -3.075514 -0.359862 17.807182 0.924677 -0.054861 1.937789 0.101453 -0.089025 3.225904 0.168765 -0.321547 15.584163 0.811206 -1.435570 9.826760 -0.865193 -1.355414 -15.349834 -0.612493 5.736636 -1.726046 0.055171 20.236749 -21.574887 -14.713882 48.026618 -48.704063 -23.536603 13.734304 -7.177179 -32.318294 -8.178546 -0.566915 -1.598316 -0.742456 -24.075821 10.425376 -17.473570 -59.483181 -4.681130 -16.031920 8.417198 3.255000 5.011656 -51.799041 8.794022 -85.956446 82.787037 -84.546266 -1.439709 -18.074446 2.694763 -0.007849 0.006493 -0.003485 3.780945 -50.760654 -4.726808 95.997701 79.848781 101.973331 8.748478 -21.227308 -9.183884 0.001467 0.008285 0.000651
-3.609389 126.300971 0.835103 173.692021 -17.703797 -3.077003 -0.361896 17.777602 0.900801 -0.054931 1.934218 0.098527 -0.084804 3.234885 0.170504 -0.325518 15.574786 0.792547 -1.423464 9.877564 -0.845535 -1.376854 -15.350706 -0.616318 5.749010 -1.728464 0.062671 20.263863 -21.595592 -14.700994 48.001431 -48.593177 -23.485222 13.696294 -7.210121 -32.292735 -8.166180 -0.530321 -1.585524 -0.759180 -24.115685 10.421323 -17.498874 -59.406826 -4.646367 -16.058129 8.418429 3.247653 5.050989 -51.774554 8.802025 -86.010975 82.811031 -84.607506 -1.478499 -18.034795 2.724489 -0.012594 0.007250 -0.005591 3.751135 -50.743117 -4.683338 96.116437 79.855358 102.069543 8.738574 -21.186897 -9.173511 0.001705 0.002425 0.000757
-3.610756 126.302139 0.839245 173.687635 -17.749664 -3.076898 -0.367366 17.766100 0.880453 -0.054921 1.929727 0.095415 -0.085647 3.229126 0.166635 -0.332147 15.562987 0.773944 -1.454563 9.867319 -0.862802 -1.343920 -15.272654 -0.584165 5.764050 -1.726751 0.066819 20.295850 -21.617384 -14.687211 47.981138 -48.471526 -23.443958 13.660702 -7.261092 -32.269512 -8.170808 -0.556068 -1.592489 -0.765798 -24.092696 10.436547 -17.503498 -59.319506 -4.632159 -16.065086 8.419011 3.236815 5.082800 -51.745976 8.803889 -86.121343 82.810876 -84.712129 -1.492520 -17.994244 2.741769 -0.009198 0.005544 -0.004083 3.733958 -50.708720 -4.661996 96.171611 79.859730 102.111801 8.737539 -21.156575 -9.168316 0.000572 0.002037 0.000254
